<svg xmlns="http://www.w3.org/2000/svg" width="28.772" height="28.772" viewBox="0 0 28.772 28.772">
  <path id="Icon_awesome-facebook-square" data-name="Icon awesome-facebook-square" d="M25.69,2.25H3.083A3.083,3.083,0,0,0,0,5.333V27.94a3.083,3.083,0,0,0,3.083,3.083H11.9V21.24H7.851v-4.6H11.9V13.127c0-3.992,2.376-6.2,6.016-6.2a24.512,24.512,0,0,1,3.566.311v3.918H19.471a2.3,2.3,0,0,0-2.6,2.487v2.99h4.417l-.706,4.6H16.875v9.782H25.69a3.083,3.083,0,0,0,3.083-3.083V5.333A3.083,3.083,0,0,0,25.69,2.25Z" transform="translate(0 -2.25)" fill="#fff"/>
</svg>
