<svg xmlns="http://www.w3.org/2000/svg" width="29.973" height="28.767" viewBox="0 0 29.973 28.767">
  <path id="Icon_zocial-instagram" data-name="Icon zocial-instagram" d="M2.7.2a3.6,3.6,0,0,0-1.64.894A3.138,3.138,0,0,0,.157,2.6C.052,3,.046,3.374.046,14.475.04,26.948.023,26.262.362,26.965a3.43,3.43,0,0,0,1.7,1.624c.755.32.018.3,13.113.287l12.064-.011.375-.124a3.484,3.484,0,0,0,2.249-2.158l.129-.36.012-11.579c.018-12.861.047-11.9-.381-12.731A3.412,3.412,0,0,0,28.146.49C27.291.085,28.263.114,15,.119,4.866.125,3,.136,2.7.2ZM26.049,3.627c.48.326.492.36.51,2.5.018,2.085.006,2.192-.351,2.524-.322.3-.474.32-2.594.315L21.68,8.961l-.264-.135a1.418,1.418,0,0,1-.433-.393l-.176-.247L20.8,6.325c-.006-1.017.018-1.945.047-2.052a1.06,1.06,0,0,1,.6-.708l.293-.141,2.032.017,2.026.017ZM16.2,9.085a5.7,5.7,0,0,1,4.486,4.328,6.594,6.594,0,0,1,.064,1.827,5.671,5.671,0,0,1-3,4.137,6.454,6.454,0,0,1-1.546.551c-.111.011-.346.045-.521.073a5.815,5.815,0,0,1-2.425-.242,5.633,5.633,0,0,1-2.8-1.905,5.327,5.327,0,0,1,.111-6.829A5.911,5.911,0,0,1,14.43,9.006,6.364,6.364,0,0,1,16.2,9.085ZM6,12.733a8.6,8.6,0,0,0,.773,5.705,8.292,8.292,0,0,0,1.751,2.31,9.375,9.375,0,0,0,7.971,2.5,9.146,9.146,0,0,0,7.461-6.52,8.39,8.39,0,0,0,.24-3.148,5.97,5.97,0,0,0-.24-1.214c-.018-.028-.012-.051.018-.056.223-.022,2.5-.017,2.542.011s.047,2.513.041,6.273l-.018,6.245-.176.242a1.446,1.446,0,0,1-.439.371l-.264.129L14.969,25.56,4.28,25.548,4.04,25.4a1.509,1.509,0,0,1-.375-.365l-.141-.214-.018-6.211c-.006-3.418-.006-6.234.012-6.267a6.562,6.562,0,0,1,1.306-.056H6.108Z" transform="translate(-0.044 -0.117)" fill="#fff"/>
</svg>
