<svg xmlns="http://www.w3.org/2000/svg" width="28.522" height="28.522" viewBox="0 0 28.522 28.522">
  <path id="Icon_awesome-linkedin" data-name="Icon awesome-linkedin" d="M26.485,2.25H2.031A2.046,2.046,0,0,0,0,4.306V28.716a2.046,2.046,0,0,0,2.031,2.056H26.485a2.051,2.051,0,0,0,2.037-2.056V4.306A2.051,2.051,0,0,0,26.485,2.25ZM8.62,26.7H4.393V13.086H8.627V26.7ZM6.507,11.227A2.451,2.451,0,1,1,8.958,8.776a2.452,2.452,0,0,1-2.451,2.451ZM24.467,26.7H20.239V20.076c0-1.579-.032-3.61-2.2-3.61-2.2,0-2.54,1.719-2.54,3.5V26.7H11.275V13.086h4.056v1.859h.057a4.453,4.453,0,0,1,4-2.2c4.278,0,5.074,2.82,5.074,6.488Z" transform="translate(0 -2.25)" fill="#fff"/>
</svg>
